<svg xmlns="http://www.w3.org/2000/svg" xmlns:xlink="http://www.w3.org/1999/xlink" width="1080" zoomAndPan="magnify" viewBox="0 0 810 809.999993" height="1080" preserveAspectRatio="xMidYMid meet" version="1.0"><path fill="#b9d9ea" d="M 793.695312 553.5 C 801.742188 566.257812 807.246094 581.820312 799.835938 598.550781 C 792.6875 614.75 778.710938 630.417969 762.566406 642.75 C 747.792969 654.449219 731.117188 664.296875 713.59375 672.078125 C 689.242188 683.195312 664.253906 691.136719 638.839844 692.617188 C 604.21875 695.265625 576.953125 683.566406 556.886719 665.515625 C 550.21875 659.585938 544.871094 652.652344 539.945312 645.503906 C 531.53125 633.222656 523.640625 620.464844 514.851562 608.078125 C 503.152344 591.773438 486.898438 572.71875 459.742188 571.660156 C 440.628906 571.660156 427.078125 585.84375 417.441406 598.601562 C 409.234375 609.347656 402.246094 620.519531 393.300781 630.789062 C 386.628906 638.835938 378.265625 646.085938 368.257812 651.484375 C 354.019531 659.53125 334.429688 662.65625 321.457031 655.613281 C 304.042969 646.296875 307.375 625.863281 311.71875 609.507812 C 314.257812 599.183594 317.648438 588.808594 319.710938 578.277344 C 320.71875 572.398438 320.875 566.417969 318.96875 560.964844 C 316.375 554.136719 310.234375 546.777344 299.964844 548.101562 C 281.648438 551.226562 262.851562 568.746094 248.929688 579.121094 C 225.054688 597.386719 200.171875 615.859375 170.207031 625.546875 C 144.53125 633.964844 108.316406 632.164062 97.464844 610.511719 C 83.011719 581.027344 118.269531 547.097656 145.375 525.867188 C 170.683594 505.753906 198.265625 486.695312 221.503906 463.878906 C 229.023438 456.574219 236.964844 449.164062 240.882812 439.953125 C 250.09375 417.71875 245.542969 394.429688 240.511719 372.511719 C 236.066406 361.765625 230.136719 351.496094 224.628906 341.015625 C 211.289062 315.394531 200.59375 287.761719 193.710938 258.488281 C 187.835938 232.601562 182.964844 204.8125 190.90625 176.859375 C 195.671875 159.605469 204.351562 142.398438 218.859375 129.429688 C 233.523438 116.355469 252.054688 106.5625 271.429688 103.066406 C 306.210938 97.773438 334.480469 111.539062 351.53125 137.210938 C 358.464844 147.324219 363.175781 158.757812 366.511719 170.457031 C 374.398438 196.660156 376.730469 223.972656 382.078125 249.914062 C 385.410156 264.789062 388.957031 279.925781 397.695312 292.101562 C 404.417969 301.472656 415.164062 309.199219 428.769531 309.253906 C 439.304688 309.253906 450.265625 303.75 459.105469 298.03125 C 475.519531 286.863281 489.230469 273.097656 502.464844 258.699219 C 544.660156 211.957031 579.8125 154.785156 638.734375 118.84375 C 665.628906 101.53125 700.199219 90.097656 725.398438 102.007812 C 747.792969 112.96875 746.839844 141.660156 737.683594 165.480469 C 720.742188 210.316406 678.125 243.402344 642.917969 276.0625 C 623.648438 294.007812 603.6875 312.695312 592.09375 334.292969 C 585.421875 346.734375 585.476562 360.285156 591.566406 370.34375 C 604.429688 389.292969 637.886719 383.46875 644.292969 408.878906 C 649.269531 425.976562 627.457031 439.316406 610.253906 446.464844 C 592.835938 454.511719 568.800781 466.472656 579.125 483.253906 C 590.347656 498.710938 627.246094 496.488281 648.527344 497.972656 C 674.945312 499.402344 701.363281 501.304688 725.136719 507.710938 C 743.082031 512.792969 759.652344 520.046875 772.941406 530.050781 C 781.519531 536.773438 788.1875 544.871094 793.695312 553.5 Z M 793.695312 553.5 " fill-opacity="1" fill-rule="nonzero"/><path fill="#ffd550" d="M 790.464844 603.261719 C 801.371094 620.199219 810 640.6875 804.386719 661.648438 C 798.988281 682.136719 785.648438 701.40625 769.339844 716.226562 C 754.410156 730.414062 736.886719 742.058594 718.042969 750.847656 C 691.78125 763.550781 664.253906 771.96875 635.347656 771.757812 C 595.957031 772.234375 563.453125 753.96875 538.675781 728.03125 C 530.46875 719.507812 523.746094 709.820312 517.394531 699.976562 C 506.648438 683.089844 496.589844 665.671875 485.578125 648.734375 C 471.019531 626.605469 451.269531 600.773438 420.882812 596.960938 C 399.546875 595.269531 385.410156 612.261719 375.351562 627.769531 C 366.828125 640.953125 359.578125 654.820312 350.152344 667.417969 C 343.058594 677.320312 334.007812 686.160156 322.886719 692.351562 C 307.113281 701.722656 284.929688 704.105469 269.894531 693.625 C 249.722656 679.753906 252.742188 653.339844 257.03125 632.429688 C 259.519531 619.300781 262.90625 606.277344 264.8125 592.992188 C 265.710938 585.582031 265.605469 578.011719 263.277344 570.863281 C 260.152344 562.023438 253.058594 552.179688 241.675781 552.917969 C 221.398438 555.25 200.910156 575.789062 185.664062 587.75 C 159.246094 609.03125 131.453125 630.683594 97.675781 640.582031 C 68.613281 649.261719 27.636719 643.652344 15.671875 614.589844 C 0 575.46875 39.863281 535.660156 70.042969 511.46875 C 97.996094 488.761719 128.171875 467.746094 153.371094 441.964844 C 161.472656 433.8125 169.941406 425.5 174.070312 414.753906 C 183.601562 388.976562 178.253906 361.027344 172.484375 334.929688 C 167.558594 322.011719 161.046875 309.675781 155.066406 297.078125 C 140.613281 266.585938 129.070312 234.507812 121.660156 201.210938 C 115.410156 172.148438 110.222656 141.394531 118.269531 111.855469 C 123.035156 93.804688 131.769531 76.175781 146.433594 63.683594 C 161.152344 51.136719 179.789062 42.351562 199.324219 40.339844 C 234.421875 37.691406 263.488281 54.367188 281.699219 82.847656 C 289.164062 94.175781 294.40625 106.71875 298.375 119.53125 C 307.589844 148.433594 311.292969 178.449219 318.019531 207.5625 C 322.199219 224.398438 326.648438 241.65625 336.441406 256.105469 C 344.011719 267.328125 355.765625 276.964844 370.058594 278.179688 C 381.175781 279.027344 392.347656 273.734375 401.347656 267.964844 C 417.863281 256.742188 431.207031 242.394531 444.019531 227.414062 C 484.199219 179.242188 515.488281 120.273438 572.082031 86.921875 C 597.546875 70.9375 631.164062 61.726562 657.953125 76.28125 C 681.882812 89.621094 684.316406 119.953125 677.859375 144.730469 C 665.789062 192.054688 625.5 225.085938 592.304688 258.648438 C 573.988281 277.332031 554.769531 296.921875 544.660156 320.6875 C 538.78125 334.503906 540.160156 350.28125 547.625 362.5625 C 563.242188 385.90625 598.445312 381.933594 608.136719 412.585938 C 615.441406 433.441406 593.3125 447.628906 575.417969 454.777344 C 557.3125 462.980469 532.324219 475.472656 545.242188 496.914062 C 559.113281 516.976562 599.347656 517.398438 622.851562 521.105469 C 652.023438 525.179688 681.246094 529.839844 708.195312 539.84375 C 728.628906 547.730469 747.898438 558.265625 763.992188 571.976562 C 774.421875 581.027344 783.054688 591.828125 790.464844 603.261719 Z M 741.230469 720.410156 C 763.941406 702.304688 789.351562 672.34375 786.492188 644.179688 C 783.105469 621.101562 767.222656 597.863281 748.957031 583.144531 C 730.058594 567.953125 707.03125 557.417969 682.992188 549.953125 C 655.199219 541.324219 625.921875 536.667969 596.699219 531.902344 C 575.789062 528.410156 552.8125 524.332031 538.253906 508.929688 C 531.371094 500.988281 528.566406 489.714844 531.105469 479.285156 C 533.066406 471.132812 539.207031 464.460938 545.980469 459.167969 C 551.542969 454.667969 558 451.230469 564.40625 448 C 575.734375 442.125 592.410156 437.042969 597.125 424.972656 C 598.445312 420.472656 596.859375 415.972656 594.582031 412.214844 C 591.933594 407.875 587.804688 404.59375 583.253906 402.15625 C 576.210938 398.609375 568.851562 395.539062 561.707031 392.203125 C 554.136719 388.710938 546.882812 384.265625 541.269531 378.28125 C 534.175781 370.976562 530.257812 361.238281 528.617188 351.285156 C 526.339844 338.898438 528.140625 325.875 533.859375 314.070312 C 554.136719 272.039062 593.523438 242.609375 625.023438 208.09375 C 640.058594 191.628906 654.777344 173.683594 662.558594 152.773438 C 675.742188 120.167969 670.394531 81.683594 627.777344 83.21875 C 610.410156 84.011719 594.210938 92.269531 579.441406 101.269531 C 519.089844 138.429688 489.492188 204.546875 443.59375 254.199219 C 422.101562 277.492188 392.71875 304.703125 358.199219 297.394531 C 336.8125 292.84375 320.347656 276.59375 310.339844 258.433594 C 288.6875 216.617188 287.46875 167.648438 271.164062 122.917969 C 263.117188 100.15625 248.347656 75.964844 222.457031 70.351562 C 199.164062 64.796875 174.441406 76.8125 160.675781 95.128906 C 141.566406 121.382812 141.777344 155 145.375 185.382812 C 149.875 225.457031 163.695312 263.359375 178.625 299.988281 C 201.386719 356.472656 221.980469 402.582031 174.28125 453.027344 C 154.480469 474.679688 132.089844 494 109.695312 513.003906 C 94.128906 525.972656 78.300781 538.679688 64.21875 552.972656 C 49.128906 568.90625 29.222656 592.566406 41.242188 614.007812 C 45.6875 620.625 55.164062 623.851562 62.894531 625.230469 C 87.195312 629.148438 110.277344 617.289062 130.234375 605.695312 C 150.351562 593.574219 168.828125 579.386719 187.570312 565.464844 C 211.605469 547.890625 247.605469 523.804688 270.421875 554.1875 C 280.535156 567.527344 281.433594 584.734375 278.523438 600.507812 C 275.03125 623.058594 265.339844 645.34375 268.09375 668.003906 C 269.789062 679.488281 279.371094 688.648438 292.289062 689.125 C 303.300781 689.917969 313.835938 685.257812 322.464844 679.011719 C 353.382812 655.722656 361.851562 607.441406 397.429688 589.445312 C 414.054688 581.027344 433.535156 583.304688 449.046875 591.140625 C 494.46875 613.636719 512.417969 665.671875 540 702.464844 C 563.242188 733.378906 594.636719 756.511719 637.886719 756.40625 C 673.992188 756.777344 712.21875 742.484375 741.230469 720.410156 Z M 741.230469 720.410156 " fill-opacity="1" fill-rule="nonzero"/></svg>