<svg xmlns="http://www.w3.org/2000/svg" xmlns:xlink="http://www.w3.org/1999/xlink" width="1080" zoomAndPan="magnify" viewBox="0 0 810 809.999993" height="1080" preserveAspectRatio="xMidYMid meet" version="1.0"><defs><clipPath id="4981c4393e"><path d="M 685 0 L 757.648438 0 L 757.648438 456 L 685 456 Z M 685 0 " clip-rule="nonzero"/></clipPath></defs><path fill="#ffd550" d="M 59.707031 737.628906 L 58.347656 739.0625 C 56.78125 740.660156 55.300781 752.171875 53.90625 773.59375 C 52.964844 794.539062 53.425781 806.539062 55.285156 809.59375 C 59.285156 809.101562 63.417969 808.75 67.6875 808.539062 C 74.484375 808.582031 122.097656 807.09375 210.523438 804.070312 C 250.550781 802.257812 276.847656 800.757812 289.40625 799.566406 C 341.363281 795.632812 378.164062 792.105469 399.808594 788.976562 C 413.339844 787.210938 420.625 786.015625 421.65625 785.394531 C 426.089844 783.917969 428.871094 782.457031 429.996094 781.011719 C 435.515625 775.113281 438.207031 771.457031 438.066406 770.042969 C 438.753906 769.679688 439.367188 769.507812 439.914062 769.523438 C 436.265625 762.433594 431.65625 758.773438 426.078125 758.539062 C 425.429688 758.359375 423.332031 758.230469 419.789062 758.160156 C 392.605469 758.144531 369.433594 757.835938 350.28125 757.234375 C 323.5 756.4375 292.066406 755.160156 255.984375 753.394531 C 231.015625 751.996094 209.957031 750.582031 192.808594 749.152344 C 139.992188 744.699219 104.4375 741.78125 86.144531 740.394531 C 73.855469 739.363281 65.042969 738.441406 59.707031 737.628906 " fill-opacity="1" fill-rule="nonzero"/><path fill="#ffd550" d="M 250.054688 239.046875 L 243.113281 239.792969 C 229.148438 243.316406 220.339844 251.265625 216.699219 263.640625 C 215.664062 267.515625 215.476562 271.515625 216.136719 275.636719 L 217.867188 281.765625 C 219.472656 285.867188 222.132812 289.8125 225.847656 293.601562 C 367.785156 422.851562 461.945312 506.996094 508.328125 546.023438 C 522.238281 557.796875 533.347656 566.070312 541.65625 570.851562 C 544.429688 572.402344 546.898438 573.507812 549.058594 574.164062 C 557.320312 576.101562 562.816406 576.699219 565.546875 575.957031 L 567.089844 576.679688 C 571.160156 571.34375 566.101562 560.773438 551.914062 544.972656 L 292.023438 260.164062 C 277.191406 245.292969 263.203125 238.253906 250.054688 239.046875 " fill-opacity="1" fill-rule="nonzero"/><g clip-path="url(#4981c4393e)"><path fill="#ffd550" d="M 713.726562 0.0546875 L 710.027344 0.1875 C 693.667969 1.714844 685.511719 5.335938 685.558594 11.0625 C 687.671875 73.988281 689.90625 124.449219 692.25 162.453125 C 696.3125 226.933594 700.515625 276.957031 704.863281 312.519531 C 706.980469 333.820312 713.191406 378.476562 723.488281 446.484375 C 723.9375 450.582031 724.640625 452.632812 725.589844 452.636719 L 737.742188 455.332031 L 746.816406 453.179688 C 748.519531 452.277344 749.273438 451.363281 749.085938 450.4375 L 749.21875 442.648438 L 746.878906 327.324219 C 746.738281 284.078125 746.878906 255.777344 747.296875 242.421875 C 747.628906 223.378906 748.386719 200.507812 749.566406 173.8125 C 750.085938 162.277344 750.679688 150.058594 751.335938 137.15625 C 754.792969 73.921875 756.816406 34.914062 757.410156 20.128906 C 757.492188 17.773438 756.957031 15.636719 755.808594 13.710938 C 755.808594 12.488281 753.019531 10.074219 747.441406 6.464844 C 741.101562 2.601562 729.863281 0.464844 713.726562 0.0546875 " fill-opacity="1" fill-rule="nonzero"/></g><path fill="#ffd550" d="M 611.386719 320.398438 L 607.683594 320.785156 C 582.78125 325.972656 561.367188 332.515625 543.4375 340.414062 C 559.640625 378.976562 585.652344 431.707031 621.472656 498.605469 C 621.933594 499.863281 623.25 500.707031 625.421875 501.136719 L 637.039062 501.34375 C 645.117188 498.453125 648.613281 495.429688 647.53125 492.277344 C 647.289062 488.707031 645.675781 479.957031 642.691406 466.027344 L 624.75 382.183594 L 613.726562 323.007812 C 613.757812 320.84375 612.976562 319.972656 611.386719 320.398438 " fill-opacity="1" fill-rule="nonzero"/><path fill="#ffd550" d="M 300.828125 577.363281 L 296.222656 578.699219 L 291.851562 582.265625 L 287.796875 587.628906 L 284.140625 594.351562 C 281.839844 599.285156 279.925781 604.550781 278.390625 610.144531 C 273.332031 629.242188 273.789062 640.894531 279.761719 645.105469 C 325.835938 651.097656 368.019531 655.6875 406.324219 658.875 C 421.628906 660.292969 433.171875 660.015625 440.953125 658.050781 C 442.136719 657.738281 443.25 657.371094 444.304688 656.949219 L 455.84375 651.636719 C 457.519531 650.824219 459.25 649.535156 461.035156 647.761719 C 461.558594 647.457031 462.683594 647.457031 464.417969 647.757812 C 462.058594 640.800781 457.667969 635.5625 451.253906 632.039062 C 447.035156 629.609375 442.253906 627.453125 436.914062 625.570312 C 417.40625 618.738281 402.242188 613.367188 391.421875 609.453125 C 347.566406 593.308594 325.394531 585.203125 324.898438 585.136719 L 303.640625 577.800781 C 302.695312 577.488281 301.757812 577.34375 300.828125 577.363281 " fill-opacity="1" fill-rule="nonzero"/></svg>