<svg xmlns="http://www.w3.org/2000/svg" xmlns:xlink="http://www.w3.org/1999/xlink" width="1080" zoomAndPan="magnify" viewBox="0 0 810 809.999993" height="1080" preserveAspectRatio="xMidYMid meet" version="1.0"><defs><clipPath id="58f239ca3f"><path d="M 35.4375 0 L 774.9375 0 L 774.9375 810 L 35.4375 810 Z M 35.4375 0 " clip-rule="nonzero"/></clipPath></defs><g clip-path="url(#58f239ca3f)"><path fill="#ffffff" d="M 739.367188 141.027344 L 580.980469 141.027344 L 580.980469 116.214844 C 580.980469 114.316406 580.929688 112.421875 580.835938 110.523438 C 580.738281 108.628906 580.597656 106.738281 580.40625 104.851562 C 580.21875 102.964844 579.984375 101.082031 579.703125 99.207031 C 579.421875 97.328125 579.097656 95.460938 578.726562 93.601562 C 578.351562 91.738281 577.933594 89.890625 577.472656 88.050781 C 577.007812 86.210938 576.5 84.382812 575.949219 82.566406 C 575.398438 80.753906 574.800781 78.953125 574.160156 77.167969 C 573.519531 75.382812 572.835938 73.613281 572.105469 71.859375 C 571.378906 70.109375 570.609375 68.375 569.796875 66.660156 C 568.984375 64.945312 568.132812 63.25 567.238281 61.578125 C 566.339844 59.90625 565.40625 58.257812 564.429688 56.628906 C 563.453125 55.003906 562.4375 53.402344 561.382812 51.824219 C 560.328125 50.246094 559.234375 48.695312 558.105469 47.171875 C 556.976562 45.648438 555.808594 44.15625 554.605469 42.6875 C 553.398438 41.222656 552.160156 39.785156 550.886719 38.378906 C 549.613281 36.976562 548.304688 35.601562 546.964844 34.261719 C 545.621094 32.917969 544.25 31.609375 542.84375 30.335938 C 541.4375 29.0625 540 27.824219 538.535156 26.621094 C 537.066406 25.414062 535.574219 24.25 534.050781 23.117188 C 532.527344 21.988281 530.976562 20.894531 529.398438 19.839844 C 527.820312 18.785156 526.21875 17.769531 524.59375 16.792969 C 522.964844 15.816406 521.316406 14.882812 519.644531 13.988281 C 517.972656 13.089844 516.277344 12.238281 514.5625 11.425781 C 512.847656 10.613281 511.117188 9.84375 509.363281 9.117188 C 507.609375 8.386719 505.84375 7.703125 504.054688 7.0625 C 502.269531 6.421875 500.46875 5.828125 498.65625 5.273438 C 496.839844 4.722656 495.011719 4.214844 493.171875 3.75 C 491.332031 3.289062 489.484375 2.871094 487.621094 2.5 C 485.761719 2.125 483.894531 1.800781 482.019531 1.519531 C 480.140625 1.238281 478.257812 1.003906 476.371094 0.816406 C 474.484375 0.628906 472.59375 0.484375 470.699219 0.390625 C 468.804688 0.292969 466.90625 0.242188 465.011719 0.242188 L 344.988281 0.242188 C 343.09375 0.242188 341.195312 0.292969 339.300781 0.390625 C 337.40625 0.484375 335.515625 0.628906 333.628906 0.816406 C 331.742188 1.003906 329.859375 1.238281 327.980469 1.519531 C 326.105469 1.800781 324.238281 2.125 322.378906 2.5 C 320.515625 2.871094 318.667969 3.289062 316.828125 3.75 C 314.988281 4.214844 313.160156 4.722656 311.34375 5.273438 C 309.53125 5.828125 307.730469 6.421875 305.945312 7.0625 C 304.15625 7.703125 302.390625 8.386719 300.636719 9.117188 C 298.882812 9.84375 297.152344 10.613281 295.4375 11.425781 C 293.722656 12.238281 292.027344 13.089844 290.355469 13.988281 C 288.683594 14.882812 287.035156 15.816406 285.40625 16.792969 C 283.78125 17.769531 282.179688 18.785156 280.601562 19.839844 C 279.023438 20.894531 277.472656 21.988281 275.949219 23.117188 C 274.425781 24.25 272.929688 25.414062 271.464844 26.621094 C 270 27.824219 268.5625 29.0625 267.15625 30.335938 C 265.75 31.609375 264.378906 32.917969 263.035156 34.261719 C 261.695312 35.601562 260.386719 36.976562 259.113281 38.378906 C 257.839844 39.785156 256.601562 41.222656 255.394531 42.6875 C 254.191406 44.15625 253.023438 45.648438 251.894531 47.171875 C 250.765625 48.695312 249.671875 50.246094 248.617188 51.824219 C 247.5625 53.402344 246.546875 55.003906 245.570312 56.628906 C 244.59375 58.257812 243.660156 59.90625 242.761719 61.578125 C 241.867188 63.25 241.015625 64.945312 240.203125 66.660156 C 239.390625 68.375 238.621094 70.109375 237.894531 71.859375 C 237.164062 73.613281 236.480469 75.382812 235.839844 77.167969 C 235.199219 78.953125 234.601562 80.753906 234.050781 82.566406 C 233.5 84.382812 232.992188 86.210938 232.527344 88.050781 C 232.066406 89.890625 231.648438 91.738281 231.273438 93.601562 C 230.902344 95.460938 230.578125 97.328125 230.296875 99.207031 C 230.015625 101.082031 229.78125 102.964844 229.59375 104.851562 C 229.402344 106.738281 229.261719 108.628906 229.164062 110.523438 C 229.070312 112.421875 229.019531 114.316406 229.019531 116.214844 L 229.019531 141.027344 L 70.632812 141.027344 C 69.480469 141.027344 68.332031 141.082031 67.183594 141.195312 C 66.035156 141.308594 64.898438 141.476562 63.765625 141.703125 C 62.636719 141.929688 61.519531 142.207031 60.417969 142.542969 C 59.3125 142.878906 58.230469 143.265625 57.164062 143.707031 C 56.101562 144.148438 55.058594 144.640625 54.042969 145.183594 C 53.027344 145.726562 52.039062 146.316406 51.078125 146.957031 C 50.121094 147.597656 49.195312 148.285156 48.304688 149.015625 C 47.414062 149.746094 46.5625 150.519531 45.746094 151.335938 C 44.929688 152.152344 44.15625 153.003906 43.425781 153.894531 C 42.695312 154.785156 42.007812 155.710938 41.371094 156.667969 C 40.730469 157.628906 40.136719 158.613281 39.59375 159.632812 C 39.050781 160.648438 38.558594 161.6875 38.117188 162.753906 C 37.675781 163.820312 37.289062 164.902344 36.953125 166.007812 C 36.617188 167.109375 36.339844 168.226562 36.113281 169.355469 C 35.890625 170.488281 35.71875 171.625 35.605469 172.773438 C 35.492188 173.921875 35.4375 175.070312 35.4375 176.222656 C 35.4375 177.375 35.492188 178.527344 35.605469 179.671875 C 35.71875 180.820312 35.890625 181.960938 36.113281 183.089844 C 36.339844 184.21875 36.617188 185.335938 36.953125 186.441406 C 37.289062 187.542969 37.675781 188.628906 38.117188 189.691406 C 38.558594 190.757812 39.050781 191.796875 39.59375 192.816406 C 40.136719 193.832031 40.730469 194.820312 41.371094 195.777344 C 42.007812 196.734375 42.695312 197.660156 43.425781 198.550781 C 44.15625 199.441406 44.929688 200.296875 45.746094 201.109375 C 46.5625 201.925781 47.414062 202.699219 48.304688 203.429688 C 49.195312 204.160156 50.121094 204.847656 51.078125 205.488281 C 52.039062 206.128906 53.027344 206.71875 54.042969 207.265625 C 55.058594 207.808594 56.101562 208.300781 57.164062 208.742188 C 58.230469 209.179688 59.3125 209.570312 60.417969 209.902344 C 61.519531 210.238281 62.636719 210.519531 63.765625 210.742188 C 64.898438 210.96875 66.035156 211.136719 67.183594 211.25 C 68.332031 211.363281 69.480469 211.417969 70.632812 211.417969 L 123.429688 211.417969 L 123.429688 693.257812 C 123.429688 695.167969 123.480469 697.074219 123.578125 698.976562 C 123.675781 700.882812 123.816406 702.785156 124.007812 704.683594 C 124.195312 706.582031 124.433594 708.472656 124.714844 710.359375 C 124.996094 712.246094 125.324219 714.125 125.699219 715.996094 C 126.074219 717.867188 126.496094 719.726562 126.960938 721.578125 C 127.425781 723.425781 127.9375 725.265625 128.492188 727.089844 C 129.050781 728.914062 129.652344 730.722656 130.296875 732.519531 C 130.941406 734.316406 131.628906 736.09375 132.359375 737.855469 C 133.09375 739.617188 133.867188 741.359375 134.683594 743.082031 C 135.503906 744.804688 136.363281 746.507812 137.261719 748.191406 C 138.164062 749.871094 139.105469 751.53125 140.085938 753.164062 C 141.070312 754.800781 142.089844 756.410156 143.152344 757.996094 C 144.214844 759.582031 145.3125 761.140625 146.453125 762.671875 C 147.589844 764.203125 148.765625 765.703125 149.976562 767.179688 C 151.1875 768.652344 152.433594 770.09375 153.714844 771.507812 C 155 772.917969 156.3125 774.300781 157.664062 775.648438 C 159.015625 776.996094 160.394531 778.308594 161.8125 779.589844 C 163.226562 780.871094 164.671875 782.113281 166.144531 783.324219 C 167.621094 784.53125 169.125 785.703125 170.65625 786.839844 C 172.191406 787.976562 173.75 789.074219 175.335938 790.132812 C 176.925781 791.191406 178.535156 792.210938 180.171875 793.191406 C 181.808594 794.171875 183.46875 795.109375 185.152344 796.007812 C 186.835938 796.90625 188.539062 797.761719 190.265625 798.578125 C 191.988281 799.394531 193.734375 800.164062 195.496094 800.894531 C 197.257812 801.625 199.039062 802.308594 200.832031 802.953125 C 202.628906 803.59375 204.441406 804.191406 206.265625 804.746094 C 208.09375 805.296875 209.929688 805.804688 211.78125 806.269531 C 213.632812 806.730469 215.492188 807.148438 217.363281 807.519531 C 219.234375 807.894531 221.113281 808.21875 223 808.5 C 224.886719 808.777344 226.78125 809.011719 228.679688 809.199219 C 230.578125 809.386719 232.480469 809.523438 234.386719 809.617188 C 236.289062 809.710938 238.195312 809.757812 240.105469 809.757812 L 570.070312 809.757812 C 571.976562 809.757812 573.882812 809.707031 575.785156 809.609375 C 577.6875 809.515625 579.589844 809.371094 581.484375 809.183594 C 583.382812 808.992188 585.273438 808.757812 587.15625 808.476562 C 589.042969 808.191406 590.917969 807.863281 592.785156 807.492188 C 594.65625 807.117188 596.515625 806.699219 598.363281 806.234375 C 600.210938 805.769531 602.046875 805.257812 603.871094 804.703125 C 605.691406 804.148438 607.5 803.546875 609.296875 802.90625 C 611.089844 802.261719 612.867188 801.574219 614.625 800.84375 C 616.386719 800.113281 618.128906 799.339844 619.851562 798.523438 C 621.574219 797.707031 623.273438 796.851562 624.953125 795.949219 C 626.632812 795.050781 628.292969 794.113281 629.925781 793.132812 C 631.558594 792.152344 633.167969 791.128906 634.753906 790.070312 C 636.339844 789.011719 637.894531 787.914062 639.425781 786.777344 C 640.957031 785.640625 642.457031 784.46875 643.929688 783.261719 C 645.402344 782.050781 646.847656 780.808594 648.257812 779.527344 C 649.671875 778.246094 651.050781 776.933594 652.398438 775.585938 C 653.746094 774.238281 655.058594 772.859375 656.339844 771.445312 C 657.621094 770.035156 658.863281 768.589844 660.074219 767.117188 C 661.28125 765.644531 662.453125 764.144531 663.589844 762.613281 C 664.726562 761.082031 665.824219 759.523438 666.882812 757.941406 C 667.941406 756.355469 668.964844 754.746094 669.945312 753.113281 C 670.925781 751.480469 671.863281 749.820312 672.761719 748.140625 C 673.664062 746.460938 674.519531 744.761719 675.335938 743.039062 C 676.152344 741.316406 676.925781 739.574219 677.65625 737.8125 C 678.386719 736.054688 679.074219 734.277344 679.71875 732.484375 C 680.363281 730.6875 680.960938 728.878906 681.515625 727.058594 C 682.070312 725.234375 682.582031 723.398438 683.046875 721.550781 C 683.511719 719.703125 683.929688 717.84375 684.304688 715.972656 C 684.675781 714.105469 685.003906 712.230469 685.289062 710.34375 C 685.570312 708.460938 685.804688 706.570312 685.996094 704.671875 C 686.183594 702.777344 686.328125 700.875 686.421875 698.972656 C 686.519531 697.070312 686.570312 695.164062 686.570312 693.257812 L 686.570312 211.417969 L 739.367188 211.417969 C 740.519531 211.417969 741.667969 211.363281 742.816406 211.25 C 743.964844 211.136719 745.101562 210.96875 746.230469 210.742188 C 747.363281 210.519531 748.480469 210.238281 749.582031 209.902344 C 750.6875 209.570312 751.769531 209.179688 752.835938 208.742188 C 753.898438 208.300781 754.941406 207.808594 755.957031 207.265625 C 756.972656 206.71875 757.960938 206.128906 758.921875 205.488281 C 759.878906 204.847656 760.804688 204.160156 761.695312 203.429688 C 762.585938 202.699219 763.4375 201.925781 764.253906 201.109375 C 765.070312 200.296875 765.84375 199.441406 766.574219 198.550781 C 767.304688 197.660156 767.992188 196.734375 768.628906 195.777344 C 769.269531 194.820312 769.863281 193.832031 770.40625 192.816406 C 770.949219 191.796875 771.441406 190.757812 771.882812 189.691406 C 772.324219 188.628906 772.710938 187.542969 773.046875 186.441406 C 773.382812 185.335938 773.660156 184.21875 773.886719 183.089844 C 774.109375 181.960938 774.28125 180.820312 774.394531 179.671875 C 774.507812 178.527344 774.5625 177.375 774.5625 176.222656 C 774.5625 175.070312 774.507812 173.921875 774.394531 172.773438 C 774.28125 171.625 774.109375 170.488281 773.886719 169.355469 C 773.660156 168.226562 773.382812 167.109375 773.046875 166.007812 C 772.710938 164.902344 772.324219 163.820312 771.882812 162.753906 C 771.441406 161.6875 770.949219 160.648438 770.40625 159.632812 C 769.863281 158.613281 769.269531 157.628906 768.628906 156.667969 C 767.992188 155.710938 767.304688 154.785156 766.574219 153.894531 C 765.84375 153.003906 765.070312 152.152344 764.253906 151.335938 C 763.4375 150.519531 762.585938 149.746094 761.695312 149.015625 C 760.804688 148.285156 759.878906 147.597656 758.921875 146.957031 C 757.960938 146.316406 756.972656 145.726562 755.957031 145.183594 C 754.941406 144.640625 753.898438 144.148438 752.835938 143.707031 C 751.769531 143.265625 750.6875 142.878906 749.582031 142.542969 C 748.480469 142.207031 747.363281 141.929688 746.230469 141.703125 C 745.101562 141.476562 743.964844 141.308594 742.816406 141.195312 C 741.667969 141.082031 740.519531 141.027344 739.367188 141.027344 Z M 299.410156 116.214844 C 299.410156 114.71875 299.484375 113.230469 299.628906 111.746094 C 299.777344 110.261719 299.996094 108.785156 300.285156 107.320312 C 300.578125 105.855469 300.941406 104.410156 301.375 102.980469 C 301.808594 101.554688 302.308594 100.148438 302.878906 98.769531 C 303.453125 97.390625 304.089844 96.042969 304.792969 94.726562 C 305.496094 93.410156 306.261719 92.132812 307.09375 90.890625 C 307.921875 89.648438 308.808594 88.453125 309.757812 87.296875 C 310.703125 86.144531 311.703125 85.039062 312.761719 83.984375 C 313.816406 82.929688 314.921875 81.925781 316.074219 80.980469 C 317.230469 80.03125 318.425781 79.144531 319.667969 78.316406 C 320.910156 77.484375 322.1875 76.71875 323.503906 76.015625 C 324.820312 75.3125 326.167969 74.675781 327.546875 74.101562 C 328.925781 73.53125 330.332031 73.03125 331.757812 72.597656 C 333.1875 72.164062 334.632812 71.800781 336.097656 71.507812 C 337.5625 71.21875 339.035156 71 340.523438 70.851562 C 342.007812 70.707031 343.496094 70.632812 344.988281 70.632812 L 465.011719 70.632812 C 466.503906 70.632812 467.992188 70.707031 469.476562 70.851562 C 470.964844 71 472.4375 71.21875 473.902344 71.507812 C 475.367188 71.800781 476.8125 72.164062 478.242188 72.597656 C 479.667969 73.03125 481.074219 73.53125 482.453125 74.101562 C 483.832031 74.675781 485.179688 75.3125 486.496094 76.015625 C 487.8125 76.71875 489.089844 77.484375 490.332031 78.316406 C 491.574219 79.144531 492.769531 80.03125 493.925781 80.980469 C 495.078125 81.925781 496.183594 82.929688 497.238281 83.984375 C 498.292969 85.039062 499.296875 86.144531 500.242188 87.296875 C 501.191406 88.453125 502.078125 89.648438 502.90625 90.890625 C 503.738281 92.132812 504.503906 93.410156 505.207031 94.726562 C 505.910156 96.042969 506.546875 97.390625 507.121094 98.769531 C 507.691406 100.148438 508.191406 101.554688 508.625 102.980469 C 509.058594 104.410156 509.421875 105.855469 509.714844 107.320312 C 510.003906 108.785156 510.222656 110.261719 510.371094 111.746094 C 510.515625 113.230469 510.589844 114.71875 510.589844 116.214844 L 510.589844 141.027344 L 299.410156 141.027344 Z M 616.179688 693.257812 C 616.171875 694.765625 616.09375 696.273438 615.941406 697.773438 C 615.789062 699.273438 615.5625 700.761719 615.261719 702.242188 C 614.964844 703.71875 614.59375 705.179688 614.152344 706.625 C 613.710938 708.066406 613.203125 709.484375 612.621094 710.875 C 612.042969 712.269531 611.394531 713.628906 610.683594 714.957031 C 609.96875 716.289062 609.195312 717.578125 608.355469 718.832031 C 607.515625 720.085938 606.617188 721.296875 605.660156 722.460938 C 604.703125 723.628906 603.691406 724.742188 602.621094 725.808594 C 601.554688 726.875 600.441406 727.890625 599.273438 728.847656 C 598.109375 729.804688 596.898438 730.703125 595.644531 731.542969 C 594.390625 732.382812 593.101562 733.15625 591.769531 733.871094 C 590.441406 734.582031 589.082031 735.230469 587.6875 735.808594 C 586.296875 736.390625 584.878906 736.898438 583.4375 737.339844 C 581.992188 737.78125 580.53125 738.152344 579.054688 738.449219 C 577.574219 738.75 576.085938 738.976562 574.585938 739.128906 C 573.085938 739.28125 571.578125 739.359375 570.070312 739.367188 L 240.105469 739.367188 C 238.59375 739.367188 237.085938 739.292969 235.578125 739.144531 C 234.074219 738.996094 232.578125 738.777344 231.097656 738.480469 C 229.613281 738.1875 228.148438 737.820312 226.699219 737.382812 C 225.253906 736.945312 223.832031 736.4375 222.433594 735.859375 C 221.035156 735.28125 219.667969 734.636719 218.335938 733.925781 C 217 733.214844 215.703125 732.441406 214.445312 731.601562 C 213.1875 730.765625 211.972656 729.867188 210.800781 728.910156 C 209.632812 727.953125 208.511719 726.941406 207.441406 725.871094 C 206.367188 724.804688 205.351562 723.6875 204.390625 722.519531 C 203.429688 721.355469 202.527344 720.144531 201.683594 718.886719 C 200.839844 717.632812 200.058594 716.339844 199.34375 715.007812 C 198.628906 713.675781 197.976562 712.3125 197.394531 710.917969 C 196.8125 709.519531 196.300781 708.101562 195.855469 706.65625 C 195.414062 705.210938 195.039062 703.746094 194.742188 702.261719 C 194.441406 700.78125 194.214844 699.289062 194.058594 697.785156 C 193.90625 696.277344 193.828125 694.769531 193.820312 693.257812 L 193.820312 211.417969 L 616.179688 211.417969 Z M 616.179688 693.257812 " fill-opacity="1" fill-rule="nonzero"/></g><path fill="#ffffff" d="M 317.007812 290.4375 C 315.855469 290.4375 314.707031 290.492188 313.558594 290.605469 C 312.410156 290.71875 311.273438 290.886719 310.140625 291.113281 C 309.011719 291.335938 307.894531 291.617188 306.792969 291.953125 C 305.6875 292.285156 304.605469 292.671875 303.539062 293.113281 C 302.476562 293.554688 301.433594 294.046875 300.417969 294.589844 C 299.402344 295.136719 298.414062 295.726562 297.453125 296.367188 C 296.496094 297.007812 295.570312 297.695312 294.679688 298.425781 C 293.789062 299.15625 292.9375 299.929688 292.121094 300.746094 C 291.304688 301.558594 290.53125 302.414062 289.800781 303.304688 C 289.070312 304.195312 288.382812 305.121094 287.746094 306.078125 C 287.105469 307.035156 286.511719 308.023438 285.96875 309.039062 C 285.425781 310.058594 284.933594 311.097656 284.492188 312.164062 C 284.050781 313.226562 283.664062 314.3125 283.328125 315.414062 C 282.992188 316.519531 282.714844 317.636719 282.488281 318.765625 C 282.265625 319.894531 282.09375 321.035156 281.980469 322.183594 C 281.867188 323.328125 281.8125 324.480469 281.8125 325.632812 L 281.8125 642.398438 C 281.8125 643.550781 281.867188 644.703125 281.980469 645.851562 C 282.09375 646.996094 282.265625 648.136719 282.488281 649.265625 C 282.714844 650.398438 282.992188 651.515625 283.328125 652.617188 C 283.664062 653.71875 284.050781 654.804688 284.492188 655.867188 C 284.933594 656.933594 285.425781 657.976562 285.96875 658.992188 C 286.511719 660.007812 287.105469 660.996094 287.742188 661.953125 C 288.382812 662.914062 289.070312 663.835938 289.800781 664.726562 C 290.53125 665.621094 291.304688 666.472656 292.121094 667.289062 C 292.9375 668.101562 293.789062 668.875 294.679688 669.605469 C 295.570312 670.339844 296.496094 671.023438 297.453125 671.664062 C 298.414062 672.304688 299.402344 672.898438 300.417969 673.441406 C 301.433594 673.984375 302.476562 674.476562 303.539062 674.917969 C 304.605469 675.359375 305.6875 675.746094 306.792969 676.082031 C 307.894531 676.414062 309.011719 676.695312 310.140625 676.917969 C 311.273438 677.144531 312.410156 677.3125 313.558594 677.425781 C 314.707031 677.539062 315.855469 677.597656 317.007812 677.597656 C 318.160156 677.597656 319.3125 677.539062 320.457031 677.425781 C 321.605469 677.3125 322.746094 677.144531 323.875 676.917969 C 325.007812 676.695312 326.121094 676.414062 327.226562 676.082031 C 328.328125 675.746094 329.414062 675.359375 330.476562 674.917969 C 331.542969 674.476562 332.582031 673.984375 333.601562 673.441406 C 334.617188 672.898438 335.605469 672.304688 336.5625 671.664062 C 337.519531 671.023438 338.445312 670.339844 339.335938 669.605469 C 340.226562 668.875 341.082031 668.101562 341.898438 667.289062 C 342.710938 666.472656 343.484375 665.621094 344.214844 664.726562 C 344.949219 663.835938 345.632812 662.914062 346.273438 661.953125 C 346.914062 660.996094 347.507812 660.007812 348.050781 658.992188 C 348.59375 657.976562 349.085938 656.933594 349.527344 655.867188 C 349.96875 654.804688 350.355469 653.71875 350.691406 652.617188 C 351.023438 651.515625 351.304688 650.398438 351.527344 649.265625 C 351.753906 648.136719 351.921875 646.996094 352.035156 645.851562 C 352.148438 644.703125 352.207031 643.550781 352.207031 642.398438 L 352.207031 325.632812 C 352.207031 324.480469 352.148438 323.328125 352.035156 322.183594 C 351.921875 321.035156 351.753906 319.894531 351.527344 318.765625 C 351.304688 317.636719 351.023438 316.519531 350.691406 315.414062 C 350.355469 314.3125 349.96875 313.226562 349.527344 312.164062 C 349.085938 311.097656 348.59375 310.058594 348.050781 309.039062 C 347.507812 308.023438 346.914062 307.035156 346.273438 306.078125 C 345.632812 305.121094 344.949219 304.195312 344.214844 303.304688 C 343.484375 302.414062 342.710938 301.558594 341.898438 300.746094 C 341.082031 299.929688 340.226562 299.15625 339.335938 298.425781 C 338.445312 297.695312 337.519531 297.007812 336.5625 296.367188 C 335.605469 295.726562 334.617188 295.136719 333.601562 294.589844 C 332.582031 294.046875 331.542969 293.554688 330.476562 293.113281 C 329.414062 292.671875 328.328125 292.285156 327.226562 291.949219 C 326.121094 291.617188 325.007812 291.335938 323.875 291.113281 C 322.746094 290.886719 321.605469 290.71875 320.457031 290.605469 C 319.3125 290.492188 318.160156 290.4375 317.007812 290.4375 Z M 317.007812 290.4375 " fill-opacity="1" fill-rule="nonzero"/><path fill="#ffffff" d="M 492.992188 290.4375 C 491.839844 290.4375 490.6875 290.492188 489.542969 290.605469 C 488.394531 290.71875 487.253906 290.886719 486.125 291.113281 C 484.992188 291.335938 483.878906 291.617188 482.773438 291.953125 C 481.671875 292.285156 480.585938 292.671875 479.523438 293.113281 C 478.457031 293.554688 477.417969 294.046875 476.398438 294.589844 C 475.382812 295.136719 474.394531 295.726562 473.4375 296.367188 C 472.476562 297.007812 471.554688 297.695312 470.664062 298.425781 C 469.773438 299.15625 468.917969 299.929688 468.101562 300.746094 C 467.289062 301.558594 466.515625 302.414062 465.785156 303.304688 C 465.050781 304.195312 464.367188 305.121094 463.726562 306.078125 C 463.085938 307.035156 462.492188 308.023438 461.949219 309.039062 C 461.40625 310.058594 460.914062 311.097656 460.472656 312.164062 C 460.03125 313.226562 459.644531 314.3125 459.308594 315.414062 C 458.976562 316.519531 458.695312 317.636719 458.472656 318.765625 C 458.246094 319.894531 458.078125 321.035156 457.964844 322.183594 C 457.851562 323.328125 457.792969 324.480469 457.792969 325.632812 L 457.792969 642.398438 C 457.792969 643.550781 457.851562 644.703125 457.964844 645.851562 C 458.078125 646.996094 458.246094 648.136719 458.472656 649.265625 C 458.695312 650.398438 458.976562 651.515625 459.308594 652.617188 C 459.644531 653.71875 460.03125 654.804688 460.472656 655.867188 C 460.914062 656.933594 461.40625 657.976562 461.949219 658.992188 C 462.492188 660.007812 463.085938 660.996094 463.726562 661.953125 C 464.367188 662.914062 465.050781 663.835938 465.785156 664.726562 C 466.515625 665.621094 467.289062 666.472656 468.101562 667.289062 C 468.917969 668.101562 469.773438 668.875 470.664062 669.605469 C 471.554688 670.339844 472.476562 671.023438 473.4375 671.664062 C 474.394531 672.304688 475.382812 672.898438 476.398438 673.441406 C 477.417969 673.984375 478.457031 674.476562 479.523438 674.917969 C 480.585938 675.359375 481.671875 675.746094 482.773438 676.082031 C 483.878906 676.414062 484.992188 676.695312 486.125 676.917969 C 487.253906 677.144531 488.394531 677.3125 489.542969 677.425781 C 490.6875 677.539062 491.839844 677.597656 492.992188 677.597656 C 494.144531 677.597656 495.292969 677.539062 496.441406 677.425781 C 497.589844 677.3125 498.726562 677.144531 499.859375 676.917969 C 500.988281 676.695312 502.105469 676.414062 503.207031 676.082031 C 504.3125 675.746094 505.394531 675.359375 506.460938 674.917969 C 507.523438 674.476562 508.566406 673.984375 509.582031 673.441406 C 510.597656 672.898438 511.585938 672.304688 512.546875 671.664062 C 513.503906 671.023438 514.429688 670.339844 515.320312 669.605469 C 516.210938 668.875 517.0625 668.101562 517.878906 667.289062 C 518.695312 666.472656 519.46875 665.621094 520.199219 664.726562 C 520.929688 663.835938 521.617188 662.914062 522.253906 661.953125 C 522.894531 660.996094 523.488281 660.007812 524.03125 658.992188 C 524.574219 657.976562 525.066406 656.933594 525.507812 655.867188 C 525.949219 654.804688 526.335938 653.71875 526.671875 652.617188 C 527.007812 651.515625 527.285156 650.398438 527.511719 649.265625 C 527.734375 648.136719 527.90625 646.996094 528.019531 645.851562 C 528.132812 644.703125 528.1875 643.550781 528.1875 642.398438 L 528.1875 325.632812 C 528.1875 324.480469 528.132812 323.328125 528.019531 322.183594 C 527.90625 321.035156 527.734375 319.894531 527.511719 318.765625 C 527.285156 317.636719 527.007812 316.519531 526.671875 315.414062 C 526.335938 314.3125 525.949219 313.226562 525.507812 312.164062 C 525.066406 311.097656 524.574219 310.058594 524.03125 309.039062 C 523.488281 308.023438 522.894531 307.035156 522.253906 306.078125 C 521.617188 305.121094 520.929688 304.195312 520.199219 303.304688 C 519.46875 302.414062 518.695312 301.558594 517.878906 300.746094 C 517.0625 299.929688 516.210938 299.15625 515.320312 298.425781 C 514.429688 297.695312 513.503906 297.007812 512.546875 296.367188 C 511.585938 295.726562 510.597656 295.136719 509.582031 294.589844 C 508.566406 294.046875 507.523438 293.554688 506.460938 293.113281 C 505.394531 292.671875 504.3125 292.285156 503.207031 291.949219 C 502.105469 291.617188 500.988281 291.335938 499.859375 291.113281 C 498.726562 290.886719 497.589844 290.71875 496.441406 290.605469 C 495.292969 290.492188 494.144531 290.4375 492.992188 290.4375 Z M 492.992188 290.4375 " fill-opacity="1" fill-rule="nonzero"/></svg>