<svg xmlns="http://www.w3.org/2000/svg" xmlns:xlink="http://www.w3.org/1999/xlink" width="1080" zoomAndPan="magnify" viewBox="0 0 810 809.999993" height="1080" preserveAspectRatio="xMidYMid meet" version="1.0"><path fill="#e0b1e8" d="M 139.386719 163.414062 L 83.4375 137.578125 L 27.316406 163.414062 L 53.15625 107.296875 L 27.316406 51.179688 L 83.4375 77.015625 L 139.554688 51.179688 L 113.714844 107.296875 Z M 753.71875 711.257812 L 779.554688 655.140625 L 723.4375 680.980469 L 667.320312 655.140625 L 693.15625 711.257812 L 667.320312 767.378906 L 723.4375 741.539062 L 779.554688 767.378906 Z M 753.71875 711.257812 " fill-opacity="1" fill-rule="nonzero"/><path fill="#ffd550" d="M 585.695312 582.566406 L 431.332031 451.574219 L 408.457031 810 L 379.328125 451.902344 L 227.433594 585.695312 L 358.425781 431.332031 L 0 408.621094 L 358.097656 379.492188 L 224.304688 227.597656 L 378.667969 358.59375 L 401.378906 0 L 430.507812 358.097656 L 582.402344 224.304688 L 451.40625 378.667969 L 810 401.542969 L 451.902344 430.671875 Z M 585.695312 582.566406 " fill-opacity="1" fill-rule="nonzero"/><path fill="#ffc7d7" d="M 462.597656 686.574219 L 459.472656 671.597656 C 571.871094 648.558594 657.773438 556.730469 673.246094 443.015625 L 688.386719 445.15625 C 672.257812 565.289062 581.417969 662.21875 462.597656 686.574219 Z M 686.902344 356.617188 C 665.675781 234.835938 569.238281 141.035156 446.964844 123.097656 L 444.824219 138.238281 C 560.515625 155.1875 651.851562 244.054688 671.929688 359.25 Z M 358.59375 139.386719 L 355.957031 124.25 C 235.496094 145.148438 141.527344 240.269531 122.4375 361.226562 L 137.578125 363.695312 C 155.679688 249.15625 244.546875 159.136719 358.59375 139.386719 Z M 358.757812 673.078125 C 242.242188 653.003906 153.046875 560.84375 136.753906 443.835938 L 121.613281 445.976562 C 138.730469 569.730469 233.027344 666.992188 356.125 688.21875 Z M 358.757812 673.078125 " fill-opacity="1" fill-rule="nonzero"/><path fill="#b9d9ea" d="M 773.628906 53.320312 C 731.832031 94.296875 690.03125 135.4375 648.394531 176.417969 C 647.902344 176.910156 647.40625 177.074219 646.914062 177.074219 C 646.253906 177.238281 645.597656 177.074219 644.9375 176.417969 C 642.636719 173.949219 640.167969 171.644531 637.863281 169.175781 C 636.875 168.1875 636.875 166.707031 637.863281 165.71875 C 679.664062 124.742188 721.460938 83.601562 763.261719 42.621094 C 764.25 41.636719 765.730469 41.636719 766.71875 42.621094 C 769.023438 45.089844 771.492188 47.394531 773.796875 49.863281 C 774.617188 50.6875 774.617188 52.332031 773.628906 53.320312 Z M 172.960938 640.167969 C 170.65625 637.699219 168.1875 635.394531 165.882812 632.925781 C 164.894531 631.9375 163.414062 631.9375 162.429688 632.925781 C 120.464844 674.230469 78.5 715.539062 36.535156 756.679688 C 35.546875 757.667969 35.546875 759.148438 36.535156 760.136719 C 38.835938 762.605469 41.304688 764.910156 43.609375 767.378906 C 44.269531 768.035156 44.925781 768.199219 45.585938 768.035156 C 46.078125 768.035156 46.574219 767.871094 47.066406 767.378906 C 89.03125 726.070312 130.996094 684.765625 172.960938 643.621094 C 173.949219 642.800781 173.949219 641.152344 172.960938 640.167969 Z M 172.960938 640.167969 " fill-opacity="1" fill-rule="nonzero"/></svg>