<svg xmlns="http://www.w3.org/2000/svg" xmlns:xlink="http://www.w3.org/1999/xlink" width="1080" zoomAndPan="magnify" viewBox="0 0 810 809.999993" height="1080" preserveAspectRatio="xMidYMid meet" version="1.0"><defs><clipPath id="c3e3038d9a"><path d="M 268.3125 0 L 809.8125 0 L 809.8125 810 L 268.3125 810 Z M 268.3125 0 " clip-rule="nonzero"/></clipPath><clipPath id="50661f028c"><path d="M 268.3125 0 L 809.8125 0 L 809.8125 414 L 268.3125 414 Z M 268.3125 0 " clip-rule="nonzero"/></clipPath></defs><g clip-path="url(#c3e3038d9a)"><path fill="#b9d9ea" d="M 797.476562 388.546875 C 791 388.546875 785.683594 393.699219 785.183594 400.015625 C 664.574219 400.015625 603.105469 398.519531 572.039062 352.320312 C 540.472656 305.121094 539.976562 210.890625 539.808594 24.597656 C 546.289062 24.097656 551.273438 18.777344 551.273438 12.296875 C 551.273438 5.484375 545.789062 0 538.980469 0 C 532.167969 0 526.6875 5.484375 526.6875 12.296875 C 526.6875 18.777344 531.835938 24.097656 538.148438 24.597656 C 538.148438 202.085938 537.648438 295.980469 510.238281 345.171875 C 456.578125 314.261719 391.953125 282.1875 380.65625 299.804688 C 370.355469 315.921875 417.371094 355.308594 460.066406 386.386719 C 423.851562 399.183594 370.523438 399.847656 292.941406 399.847656 C 292.441406 393.367188 287.125 388.382812 280.648438 388.382812 C 273.835938 388.382812 268.351562 393.867188 268.351562 400.679688 C 268.351562 407.492188 273.835938 412.976562 280.648438 412.976562 C 287.125 412.976562 292.441406 407.824219 292.941406 401.511719 C 413.550781 401.511719 475.019531 403.003906 505.917969 449.371094 C 537.984375 497.234375 538.148438 593.625 538.148438 785.402344 C 531.667969 785.902344 526.6875 791.21875 526.6875 797.703125 C 526.6875 804.515625 532.167969 810 538.980469 810 C 545.789062 810 551.273438 804.515625 551.273438 797.703125 C 551.273438 791.21875 546.121094 785.902344 539.808594 785.402344 C 539.808594 602.597656 539.808594 506.375 567.71875 456.351562 C 591.976562 470.3125 614.734375 482.277344 634.339844 491.085938 C 660.917969 503.21875 676.203125 507.207031 685.175781 507.207031 C 692.316406 507.207031 695.472656 504.710938 697.46875 501.554688 C 705.773438 488.59375 679.027344 459.34375 618.058594 414.972656 C 654.273438 402.175781 707.4375 401.511719 785.183594 401.511719 C 785.683594 407.992188 791 412.976562 797.476562 412.976562 C 804.289062 412.976562 809.773438 407.492188 809.773438 400.679688 C 809.773438 394.03125 804.289062 388.546875 797.476562 388.546875 Z M 393.28125 307.945312 C 393.28125 307.945312 393.449219 307.945312 393.449219 307.945312 C 403.085938 307.945312 437.308594 318.914062 503.09375 356.804688 C 495.453125 366.777344 486.148438 374.585938 474.6875 380.402344 C 425.679688 345.007812 397.269531 317.75 393.28125 307.945312 Z M 685.007812 493.910156 C 684.84375 493.910156 684.507812 493.910156 684.34375 493.910156 C 672.214844 493.910156 632.011719 477.789062 575.195312 445.050781 C 582.835938 435.078125 592.140625 427.269531 603.605469 421.453125 C 658.09375 460.507812 681.519531 485.433594 685.007812 493.910156 Z M 685.007812 493.910156 " fill-opacity="1" fill-rule="nonzero"/></g><path fill="#ffc7d7" d="M 697.46875 501.722656 C 695.472656 504.710938 692.316406 507.371094 685.175781 507.371094 C 676.203125 507.371094 661.085938 503.382812 634.339844 491.25 C 614.734375 482.445312 591.976562 470.476562 567.71875 456.519531 C 552.769531 447.875 537.152344 438.402344 521.535156 428.433594 C 515.058594 424.277344 488.640625 407.328125 460.234375 386.554688 C 417.539062 355.476562 370.523438 316.089844 380.824219 299.96875 C 392.121094 282.1875 456.746094 314.261719 510.40625 345.339844 C 509.074219 347.832031 507.582031 350.15625 506.085938 352.320312 C 505.089844 353.8125 504.09375 355.308594 502.929688 356.640625 C 437.308594 318.75 402.917969 307.78125 393.28125 307.78125 L 393.117188 307.78125 C 397.105469 317.75 425.511719 344.839844 474.519531 380.238281 C 490.46875 391.703125 508.578125 404.003906 528.679688 416.800781 C 545.125 427.269531 560.578125 436.574219 575.03125 444.886719 C 632.011719 477.625 672.050781 493.746094 684.175781 493.746094 C 684.34375 493.746094 684.675781 493.746094 684.84375 493.746094 C 681.1875 485.269531 657.761719 460.339844 603.4375 421.285156 C 604.601562 420.621094 605.765625 420.125 606.925781 419.625 C 607.921875 419.125 608.921875 418.628906 609.917969 418.296875 C 610.082031 418.128906 610.414062 418.128906 610.582031 417.960938 C 611.746094 417.464844 612.90625 416.964844 614.070312 416.632812 C 615.234375 416.132812 616.5625 415.636719 617.726562 415.304688 C 617.726562 415.304688 617.726562 415.304688 617.890625 415.304688 C 679.027344 459.675781 705.773438 488.757812 697.46875 501.722656 Z M 697.46875 501.722656 " fill-opacity="1" fill-rule="nonzero"/><g clip-path="url(#50661f028c)"><path fill="#ffd550" d="M 551.4375 12.296875 C 551.4375 19.113281 545.957031 24.597656 539.144531 24.597656 C 532.335938 24.597656 526.851562 19.113281 526.851562 12.296875 C 526.851562 5.484375 532.335938 0 539.144531 0 C 545.957031 0 551.4375 5.484375 551.4375 12.296875 Z M 797.476562 388.546875 C 790.667969 388.546875 785.183594 394.03125 785.183594 400.84375 C 785.183594 407.660156 790.667969 413.144531 797.476562 413.144531 C 804.289062 413.144531 809.773438 407.660156 809.773438 400.84375 C 809.773438 394.03125 804.289062 388.546875 797.476562 388.546875 Z M 280.8125 388.546875 C 274 388.546875 268.519531 394.03125 268.519531 400.84375 C 268.519531 407.660156 274 413.144531 280.8125 413.144531 C 287.625 413.144531 293.105469 407.660156 293.105469 400.84375 C 293.105469 394.03125 287.625 388.546875 280.8125 388.546875 Z M 280.8125 388.546875 " fill-opacity="1" fill-rule="nonzero"/></g></svg>