<svg xmlns="http://www.w3.org/2000/svg" xmlns:xlink="http://www.w3.org/1999/xlink" width="1080" zoomAndPan="magnify" viewBox="0 0 810 809.999993" height="1080" preserveAspectRatio="xMidYMid meet" version="1.0"><defs><clipPath id="63339fcfe5"><path d="M 258.1875 0 L 810 0 L 810 810 L 258.1875 810 Z M 258.1875 0 " clip-rule="nonzero"/></clipPath></defs><path fill="#ffc7d7" d="M 399.019531 647.949219 L 344.121094 619.082031 L 290.726562 650.453125 L 319.59375 595.554688 L 288.222656 542.160156 L 343.121094 571.027344 L 396.515625 539.65625 L 367.648438 594.554688 Z M 758.605469 218.28125 L 787.472656 163.382812 L 734.078125 194.753906 L 679.179688 165.886719 L 710.550781 219.28125 L 681.683594 274.179688 L 735.078125 242.808594 L 789.976562 271.675781 Z M 758.605469 218.28125 " fill-opacity="1" fill-rule="nonzero"/><g clip-path="url(#63339fcfe5)"><path fill="#c1c0f2" d="M 810 405 C 553.367188 420.519531 544.691406 433.199219 534.175781 809.808594 C 523.496094 433.03125 514.820312 420.519531 258.1875 405 C 514.820312 389.480469 523.496094 376.800781 534.011719 0.191406 C 544.6875 376.800781 553.199219 389.480469 810 405 Z M 810 405 " fill-opacity="1" fill-rule="nonzero"/></g><path fill="#b9d9ea" d="M 561.710938 587.878906 L 560.039062 577.203125 C 638.300781 565.519531 698.703125 502.28125 707.046875 423.6875 L 717.726562 424.855469 C 709.046875 508.289062 644.804688 575.367188 561.710938 587.878906 Z M 717.890625 383.808594 C 708.382812 300.210938 643.636719 233.632812 560.375 221.785156 L 558.871094 232.464844 C 637.296875 243.644531 698.203125 306.382812 707.046875 384.976562 Z M 509.980469 232.464844 L 508.480469 221.785156 C 427.050781 233.132812 362.308594 297.875 350.960938 379.136719 L 361.640625 380.636719 C 372.320312 304.046875 433.226562 243.144531 509.980469 232.464844 Z M 508.8125 577.203125 C 431.222656 565.855469 370.484375 503.617188 361.140625 425.691406 L 350.460938 427.027344 C 360.308594 509.789062 424.714844 575.867188 507.3125 587.878906 Z M 508.8125 577.203125 " fill-opacity="1" fill-rule="nonzero"/></svg>