<svg xmlns="http://www.w3.org/2000/svg" xmlns:xlink="http://www.w3.org/1999/xlink" width="1080" zoomAndPan="magnify" viewBox="0 0 810 809.999993" height="1080" preserveAspectRatio="xMidYMid meet" version="1.0"><defs><clipPath id="33505f5083"><path d="M 4 0 L 805.714844 0 L 805.714844 810 L 4 810 Z M 4 0 " clip-rule="nonzero"/></clipPath></defs><path fill="#ffd550" d="M 404.246094 547.894531 L 403.410156 547.894531 C 322.183594 547.394531 256.503906 481.042969 257.003906 399.816406 C 257.503906 319.09375 323.523438 253.410156 404.246094 253.410156 C 486.308594 253.910156 551.992188 320.261719 551.488281 401.488281 C 550.988281 482.378906 484.972656 547.894531 404.246094 547.894531 Z M 405.082031 264.773438 C 329.707031 264.773438 268.703125 325.441406 268.367188 399.984375 C 267.867188 475.027344 328.535156 536.363281 403.578125 536.699219 L 404.414062 542.378906 L 404.414062 536.699219 C 478.953125 536.699219 539.957031 476.027344 540.460938 401.488281 C 540.625 326.613281 479.957031 265.109375 405.082031 264.773438 Z M 568.203125 702.492188 L 587.257812 660.878906 L 545.640625 679.929688 L 504.023438 660.878906 L 523.078125 702.492188 L 504.023438 744.109375 L 545.640625 725.054688 L 587.257812 744.109375 Z M 304.300781 90.957031 L 323.355469 49.339844 L 281.90625 68.5625 L 240.289062 49.507812 L 259.34375 91.125 L 240.289062 132.738281 L 281.90625 113.351562 L 323.523438 132.40625 Z M 304.300781 90.957031 " fill-opacity="1" fill-rule="nonzero"/><path fill="#ffc7d7" d="M 156.054688 371.40625 C 169.257812 260.261719 255.667969 171.179688 365.472656 153.964844 C 364.972656 156.136719 364.636719 158.476562 364.636719 160.984375 C 364.636719 162.488281 364.804688 163.992188 364.972656 165.496094 C 261.347656 182.710938 179.789062 267.28125 167.253906 372.40625 C 164.746094 371.738281 162.074219 371.40625 159.230469 371.40625 C 158.226562 371.238281 157.226562 371.40625 156.054688 371.40625 Z M 372.992188 643.828125 L 372.992188 642.160156 C 372.992188 640.488281 373.160156 638.984375 373.328125 637.480469 C 320.679688 630.792969 272.210938 606.894531 234.441406 568.621094 C 198.675781 532.351562 175.777344 486.726562 168.257812 437.253906 C 165.414062 438.089844 162.40625 438.589844 159.230469 438.589844 C 158.5625 438.589844 157.726562 438.589844 157.058594 438.425781 C 164.914062 490.402344 188.8125 538.371094 226.417969 576.476562 C 266.363281 616.921875 317.839844 641.992188 373.328125 648.84375 C 373.160156 647.171875 372.992188 645.5 372.992188 643.828125 Z M 573.886719 233.019531 C 609.484375 269.121094 632.214844 314.414062 639.902344 363.550781 C 641.742188 363.214844 643.578125 363.046875 645.585938 363.046875 C 647.589844 363.046875 649.429688 363.214844 651.269531 363.550781 C 643.578125 311.402344 619.511719 263.269531 581.90625 225.164062 C 540.960938 183.546875 487.980469 158.3125 430.652344 152.292969 C 431.320312 154.96875 431.824219 157.976562 431.824219 160.816406 C 431.824219 161.820312 431.824219 162.65625 431.65625 163.660156 C 485.640625 169.84375 535.277344 193.910156 573.886719 233.019531 Z M 645.585938 430.066406 C 644.082031 430.066406 642.578125 429.902344 641.074219 429.734375 C 628.035156 535.863281 544.972656 620.933594 439.679688 636.644531 C 440.011719 638.480469 440.179688 640.320312 440.179688 642.160156 L 440.179688 643.828125 C 440.179688 645.167969 440.011719 646.671875 439.847656 648.007812 C 551.15625 631.964844 639.402344 541.878906 652.269531 429.398438 C 650.265625 429.902344 647.925781 430.066406 645.585938 430.066406 Z M 645.585938 430.066406 " fill-opacity="1" fill-rule="nonzero"/><g clip-path="url(#33505f5083)"><path fill="#dbb3e2" d="M 603.800781 602.046875 C 599.957031 598.203125 605.976562 592.1875 609.820312 596.03125 C 638.898438 625.109375 667.8125 654.023438 696.894531 683.105469 C 700.738281 686.949219 694.722656 692.964844 690.878906 689.121094 C 661.964844 660.207031 632.882812 631.128906 603.800781 602.046875 Z M 209.371094 204.105469 C 178.285156 173.019531 147.363281 142.097656 116.445312 111.179688 C 112.601562 107.335938 106.585938 113.351562 110.429688 117.195312 C 141.347656 148.117188 172.433594 179.203125 203.355469 210.121094 C 207.199219 213.800781 213.214844 207.949219 209.371094 204.105469 Z M 597.453125 212.964844 L 613.328125 197.085938 C 615.5 194.914062 615.5 191.402344 613.328125 189.0625 C 611.15625 186.890625 607.644531 186.890625 605.304688 189.0625 L 589.429688 204.941406 C 587.257812 207.113281 587.257812 210.625 589.429688 212.964844 C 590.597656 214.132812 591.9375 214.636719 593.441406 214.636719 C 594.945312 214.636719 596.28125 213.964844 597.453125 212.964844 Z M 629.207031 181.207031 L 645.082031 165.332031 C 647.257812 163.15625 647.257812 159.648438 645.082031 157.308594 C 642.910156 155.136719 639.402344 155.136719 637.0625 157.308594 L 621.183594 173.1875 C 619.011719 175.359375 619.011719 178.867188 621.183594 181.207031 C 622.355469 182.378906 623.691406 182.878906 625.195312 182.878906 C 626.699219 182.710938 628.035156 182.210938 629.207031 181.207031 Z M 660.960938 149.453125 L 676.839844 133.574219 C 679.011719 131.402344 679.011719 127.894531 676.839844 125.554688 C 674.667969 123.214844 671.15625 123.378906 668.816406 125.554688 L 652.9375 141.429688 C 650.765625 143.605469 650.765625 147.113281 652.9375 149.453125 C 654.109375 150.625 655.445312 151.125 656.949219 151.125 C 658.453125 151.125 659.957031 150.457031 660.960938 149.453125 Z M 692.714844 117.699219 L 708.59375 101.820312 C 710.765625 99.648438 710.765625 96.136719 708.59375 93.796875 C 706.421875 91.625 702.910156 91.625 700.570312 93.796875 L 684.695312 109.675781 C 682.523438 111.847656 682.523438 115.359375 684.695312 117.699219 C 685.863281 118.867188 687.199219 119.371094 688.707031 119.371094 C 690.210938 119.371094 691.714844 118.699219 692.714844 117.699219 Z M 724.472656 85.777344 L 740.347656 69.898438 C 742.523438 67.726562 742.523438 64.214844 740.347656 61.875 C 738.175781 59.535156 734.667969 59.703125 732.328125 61.875 L 716.449219 77.753906 C 714.277344 79.925781 714.277344 83.4375 716.449219 85.777344 C 717.621094 86.945312 718.957031 87.449219 720.460938 87.449219 C 721.964844 87.449219 723.46875 86.945312 724.472656 85.777344 Z M 756.226562 54.019531 L 772.105469 38.144531 C 774.277344 35.972656 774.277344 32.460938 772.105469 30.121094 C 769.929688 27.949219 766.421875 27.949219 764.082031 30.121094 L 748.203125 46 C 746.03125 48.171875 746.03125 51.679688 748.203125 54.019531 C 749.375 55.191406 750.710938 55.691406 752.214844 55.691406 C 753.71875 55.691406 755.222656 55.191406 756.226562 54.019531 Z M 787.980469 22.265625 L 803.859375 6.386719 C 806.03125 4.214844 806.03125 0.707031 803.859375 -1.632812 C 801.6875 -3.972656 798.175781 -3.808594 795.835938 -1.632812 L 779.960938 14.242188 C 777.785156 16.417969 777.785156 19.925781 779.960938 22.265625 C 781.128906 23.4375 782.464844 23.9375 783.96875 23.9375 C 785.476562 23.9375 786.980469 23.4375 787.980469 22.265625 Z M 13.992188 812.296875 L 29.871094 796.421875 C 32.042969 794.25 32.042969 790.738281 29.871094 788.398438 C 27.699219 786.226562 24.1875 786.226562 21.847656 788.398438 L 6.136719 804.277344 C 3.964844 806.449219 3.964844 809.957031 6.136719 812.296875 C 7.308594 813.46875 8.644531 813.96875 10.148438 813.96875 C 11.488281 813.96875 12.992188 813.300781 13.992188 812.296875 Z M 45.75 780.542969 L 61.625 764.667969 C 63.800781 762.492188 63.800781 758.984375 61.625 756.644531 C 59.453125 754.472656 55.945312 754.472656 53.605469 756.644531 L 37.726562 772.519531 C 35.554688 774.695312 35.554688 778.203125 37.726562 780.542969 C 38.894531 781.714844 40.234375 782.214844 41.738281 782.214844 C 43.242188 782.214844 44.746094 781.546875 45.75 780.542969 Z M 77.503906 748.789062 L 93.382812 732.910156 C 95.554688 730.738281 95.554688 727.230469 93.382812 724.890625 C 91.207031 722.550781 87.699219 722.714844 85.359375 724.890625 L 69.480469 740.765625 C 67.308594 742.9375 67.308594 746.449219 69.480469 748.789062 C 70.652344 749.957031 71.988281 750.460938 73.492188 750.460938 C 74.996094 750.460938 76.5 749.792969 77.503906 748.789062 Z M 109.425781 717.035156 L 125.304688 701.15625 C 127.476562 698.984375 127.476562 695.472656 125.304688 693.132812 C 123.128906 690.960938 119.621094 690.960938 117.28125 693.132812 L 101.402344 709.011719 C 99.230469 711.183594 99.230469 714.695312 101.402344 717.035156 C 102.574219 718.203125 103.910156 718.703125 105.414062 718.703125 C 106.75 718.703125 108.257812 718.035156 109.425781 717.035156 Z M 141.179688 685.277344 L 157.058594 669.402344 C 159.230469 667.226562 159.230469 663.71875 157.058594 661.378906 C 154.886719 659.207031 151.375 659.207031 149.035156 661.378906 L 133.160156 677.257812 C 130.984375 679.429688 130.984375 682.9375 133.160156 685.277344 C 134.328125 686.449219 135.664062 686.949219 137.167969 686.949219 C 138.507812 686.78125 140.011719 686.28125 141.179688 685.277344 Z M 172.9375 653.523438 L 188.8125 637.644531 C 190.984375 635.472656 190.984375 631.964844 188.8125 629.625 C 186.640625 627.285156 183.132812 627.449219 180.792969 629.625 L 164.914062 645.5 C 162.742188 647.671875 162.742188 651.183594 164.914062 653.523438 C 166.082031 654.691406 167.421875 655.195312 168.925781 655.195312 C 170.261719 655.027344 171.765625 654.527344 172.9375 653.523438 Z M 204.691406 621.769531 L 220.570312 605.890625 C 222.742188 603.71875 222.742188 600.207031 220.570312 597.867188 C 218.394531 595.527344 214.886719 595.695312 212.546875 597.867188 L 196.667969 613.746094 C 194.496094 615.917969 194.496094 619.429688 196.667969 621.769531 C 197.839844 622.9375 199.175781 623.441406 200.679688 623.441406 C 202.183594 623.273438 203.519531 622.769531 204.691406 621.769531 Z M 204.691406 621.769531 " fill-opacity="1" fill-rule="nonzero"/></g><path fill="#ffffff" d="M 586.921875 577.476562 L 419.457031 429.734375 L 410.097656 752.132812 L 390.039062 430.234375 L 227.589844 583.496094 L 375.332031 416.027344 L 52.769531 406.667969 L 374.832031 386.613281 L 221.570312 224.160156 L 389.039062 371.90625 L 398.398438 49.507812 L 418.453125 371.40625 L 580.90625 218.144531 L 433.160156 385.609375 L 755.558594 394.96875 L 433.660156 415.027344 Z M 586.921875 577.476562 " fill-opacity="1" fill-rule="nonzero"/></svg>