<svg xmlns="http://www.w3.org/2000/svg" xmlns:xlink="http://www.w3.org/1999/xlink" width="1080" zoomAndPan="magnify" viewBox="0 0 810 809.999993" height="1080" preserveAspectRatio="xMidYMid meet" version="1.0"><defs><clipPath id="de1993699a"><path d="M 134.15625 0 L 675.65625 0 L 675.65625 810 L 134.15625 810 Z M 134.15625 0 " clip-rule="nonzero"/></clipPath><clipPath id="15f64f0bdd"><path d="M 134.15625 0 L 675.65625 0 L 675.65625 414 L 134.15625 414 Z M 134.15625 0 " clip-rule="nonzero"/></clipPath></defs><g clip-path="url(#de1993699a)"><path fill="#b9d9ea" d="M 663.320312 388.546875 C 656.84375 388.546875 651.527344 393.699219 651.027344 400.015625 C 530.417969 400.015625 468.949219 398.519531 437.882812 352.320312 C 406.316406 305.121094 405.820312 210.890625 405.652344 24.597656 C 412.132812 24.097656 417.117188 18.777344 417.117188 12.296875 C 417.117188 5.484375 411.632812 0 404.824219 0 C 398.011719 0 392.53125 5.484375 392.53125 12.296875 C 392.53125 18.777344 397.679688 24.097656 403.992188 24.597656 C 403.992188 202.085938 403.492188 295.980469 376.082031 345.171875 C 322.421875 314.261719 257.796875 282.1875 246.5 299.804688 C 236.199219 315.921875 283.214844 355.308594 325.910156 386.386719 C 289.695312 399.183594 236.367188 399.847656 158.785156 399.847656 C 158.285156 393.367188 152.96875 388.382812 146.492188 388.382812 C 139.679688 388.382812 134.195312 393.867188 134.195312 400.679688 C 134.195312 407.492188 139.679688 412.976562 146.492188 412.976562 C 152.96875 412.976562 158.285156 407.824219 158.785156 401.511719 C 279.394531 401.511719 340.863281 403.003906 371.761719 449.371094 C 403.828125 497.234375 403.992188 593.625 403.992188 785.402344 C 397.511719 785.902344 392.53125 791.21875 392.53125 797.703125 C 392.53125 804.515625 398.011719 810 404.824219 810 C 411.632812 810 417.117188 804.515625 417.117188 797.703125 C 417.117188 791.21875 411.964844 785.902344 405.652344 785.402344 C 405.652344 602.597656 405.652344 506.375 433.5625 456.351562 C 457.820312 470.3125 480.578125 482.277344 500.183594 491.085938 C 526.761719 503.21875 542.046875 507.207031 551.019531 507.207031 C 558.160156 507.207031 561.316406 504.710938 563.3125 501.554688 C 571.617188 488.59375 544.871094 459.34375 483.902344 414.972656 C 520.117188 402.175781 573.28125 401.511719 651.027344 401.511719 C 651.527344 407.992188 656.84375 412.976562 663.320312 412.976562 C 670.132812 412.976562 675.617188 407.492188 675.617188 400.679688 C 675.617188 394.03125 670.132812 388.546875 663.320312 388.546875 Z M 259.125 307.945312 C 259.125 307.945312 259.292969 307.945312 259.292969 307.945312 C 268.929688 307.945312 303.152344 318.914062 368.9375 356.804688 C 361.296875 366.777344 351.992188 374.585938 340.53125 380.402344 C 291.523438 345.007812 263.113281 317.75 259.125 307.945312 Z M 550.851562 493.910156 C 550.6875 493.910156 550.351562 493.910156 550.1875 493.910156 C 538.058594 493.910156 497.855469 477.789062 441.039062 445.050781 C 448.679688 435.078125 457.984375 427.269531 469.449219 421.453125 C 523.9375 460.507812 547.363281 485.433594 550.851562 493.910156 Z M 550.851562 493.910156 " fill-opacity="1" fill-rule="nonzero"/></g><path fill="#ffc7d7" d="M 563.3125 501.722656 C 561.316406 504.710938 558.160156 507.371094 551.019531 507.371094 C 542.046875 507.371094 526.929688 503.382812 500.183594 491.25 C 480.578125 482.445312 457.820312 470.476562 433.5625 456.519531 C 418.613281 447.875 402.996094 438.402344 387.378906 428.433594 C 380.902344 424.277344 354.484375 407.328125 326.078125 386.554688 C 283.382812 355.476562 236.367188 316.089844 246.667969 299.96875 C 257.964844 282.1875 322.589844 314.261719 376.25 345.339844 C 374.917969 347.832031 373.425781 350.15625 371.929688 352.320312 C 370.933594 353.8125 369.9375 355.308594 368.773438 356.640625 C 303.152344 318.75 268.761719 307.78125 259.125 307.78125 L 258.960938 307.78125 C 262.949219 317.75 291.355469 344.839844 340.363281 380.238281 C 356.3125 391.703125 374.421875 404.003906 394.523438 416.800781 C 410.96875 427.269531 426.421875 436.574219 440.875 444.886719 C 497.855469 477.625 537.894531 493.746094 550.019531 493.746094 C 550.1875 493.746094 550.519531 493.746094 550.6875 493.746094 C 547.03125 485.269531 523.605469 460.339844 469.28125 421.285156 C 470.445312 420.621094 471.609375 420.125 472.769531 419.625 C 473.765625 419.125 474.765625 418.628906 475.761719 418.296875 C 475.925781 418.128906 476.257812 418.128906 476.425781 417.960938 C 477.589844 417.464844 478.75 416.964844 479.914062 416.632812 C 481.078125 416.132812 482.40625 415.636719 483.570312 415.304688 C 483.570312 415.304688 483.570312 415.304688 483.734375 415.304688 C 544.871094 459.675781 571.617188 488.757812 563.3125 501.722656 Z M 563.3125 501.722656 " fill-opacity="1" fill-rule="nonzero"/><g clip-path="url(#15f64f0bdd)"><path fill="#ffd550" d="M 417.28125 12.296875 C 417.28125 19.113281 411.800781 24.597656 404.988281 24.597656 C 398.179688 24.597656 392.695312 19.113281 392.695312 12.296875 C 392.695312 5.484375 398.179688 0 404.988281 0 C 411.800781 0 417.28125 5.484375 417.28125 12.296875 Z M 663.320312 388.546875 C 656.511719 388.546875 651.027344 394.03125 651.027344 400.84375 C 651.027344 407.660156 656.511719 413.144531 663.320312 413.144531 C 670.132812 413.144531 675.617188 407.660156 675.617188 400.84375 C 675.617188 394.03125 670.132812 388.546875 663.320312 388.546875 Z M 146.65625 388.546875 C 139.84375 388.546875 134.363281 394.03125 134.363281 400.84375 C 134.363281 407.660156 139.84375 413.144531 146.65625 413.144531 C 153.46875 413.144531 158.949219 407.660156 158.949219 400.84375 C 158.949219 394.03125 153.46875 388.546875 146.65625 388.546875 Z M 146.65625 388.546875 " fill-opacity="1" fill-rule="nonzero"/></g></svg>