<svg xmlns="http://www.w3.org/2000/svg" xmlns:xlink="http://www.w3.org/1999/xlink" width="1080" zoomAndPan="magnify" viewBox="0 0 810 809.999993" height="1080" preserveAspectRatio="xMidYMid meet" version="1.0"><path fill="#b9d9ea" d="M 810 400.210938 L 462.882812 370.304688 L 566.210938 241.4375 L 609.222656 221.78125 L 652.90625 241.773438 L 632.914062 198.257812 L 652.90625 154.574219 L 609.222656 174.566406 L 565.707031 154.574219 L 585.699219 198.089844 L 567.722656 237.40625 L 438.351562 346.277344 L 400.210938 0 L 370.304688 347.117188 L 232.53125 236.734375 L 346.109375 371.816406 L 0 409.789062 L 347.117188 439.695312 L 246.308594 565.539062 L 207.5 583.347656 L 163.984375 563.355469 L 183.976562 606.871094 L 163.984375 650.386719 L 207.5 630.390625 L 251.183594 650.386719 L 231.1875 606.871094 L 249.671875 566.546875 L 371.984375 463.722656 L 410.125 810 L 440.03125 462.882812 L 577.804688 573.265625 L 463.722656 438.351562 Z M 405.085938 435.832031 L 367.113281 455.824219 L 374.335938 413.484375 L 343.589844 383.578125 L 386.097656 377.363281 L 405.085938 338.886719 L 424.070312 377.363281 L 466.578125 383.578125 L 435.832031 413.484375 L 443.054688 455.824219 Z M 405.085938 435.832031 " fill-opacity="1" fill-rule="nonzero"/><path fill="#ffc7d7" d="M 810 400.210938 L 462.882812 370.304688 L 573.265625 232.53125 L 438.183594 346.109375 L 400.210938 0 L 370.304688 347.117188 L 232.53125 236.734375 L 346.109375 371.816406 L 0 409.789062 L 347.117188 439.695312 L 236.734375 577.46875 L 371.816406 463.722656 L 409.957031 810 L 439.863281 462.882812 L 577.636719 573.265625 L 463.722656 438.351562 Z M 405.085938 435.832031 L 367.113281 455.824219 L 374.335938 413.484375 L 343.589844 383.578125 L 386.097656 377.363281 L 405.085938 338.886719 L 424.070312 377.363281 L 466.578125 383.578125 L 435.832031 413.484375 L 443.054688 455.824219 Z M 405.085938 435.832031 " fill-opacity="1" fill-rule="nonzero"/></svg>