<svg xmlns="http://www.w3.org/2000/svg" xmlns:xlink="http://www.w3.org/1999/xlink" width="1080" zoomAndPan="magnify" viewBox="0 0 810 809.999993" height="1080" preserveAspectRatio="xMidYMid meet" version="1.0"><defs><clipPath id="7b5fa1df06"><path d="M 86 195.582031 L 585 195.582031 L 585 397 L 86 397 Z M 86 195.582031 " clip-rule="nonzero"/></clipPath></defs><path fill="#e0b1e8" d="M 564.992188 546.445312 C 540.488281 570.292969 509.128906 587.445312 473.195312 594.632812 C 373.882812 614.394531 277.511719 549.878906 257.75 450.566406 C 237.984375 351.257812 302.503906 254.886719 401.816406 235.121094 C 450.328125 225.484375 498.183594 236.101562 536.734375 260.929688 C 518.601562 257.5 499.820312 257.5 481.523438 261.257812 C 443.464844 268.769531 409.492188 291.472656 387.929688 323.652344 C 366.371094 355.832031 358.367188 395.847656 365.878906 433.90625 L 366.859375 438.480469 C 374.375 476.539062 397.078125 510.511719 429.253906 532.074219 C 461.433594 553.632812 501.453125 561.636719 539.511719 554.125 C 548.332031 552.164062 556.824219 549.714844 564.992188 546.445312 Z M 564.992188 546.445312 " fill-opacity="1" fill-rule="nonzero"/><path fill="#ffffff" d="M 656.789062 403.035156 C 680.636719 411.691406 704.15625 421.003906 727.351562 431.78125 C 738.785156 437.171875 750.21875 442.890625 761.324219 449.261719 C 772.433594 455.628906 783.210938 462.492188 793.011719 471.148438 C 797.914062 475.558594 802.484375 480.292969 805.917969 486.175781 C 807.550781 489.113281 809.019531 492.546875 809.511719 496.136719 C 810 499.894531 809.347656 503.816406 807.550781 507.246094 C 805.753906 510.511719 803.140625 513.289062 800.363281 515.414062 C 797.585938 517.535156 794.644531 519.167969 791.542969 520.640625 C 785.5 523.417969 779.128906 525.375 772.921875 526.847656 C 760.34375 529.785156 747.605469 531.421875 734.699219 532.398438 C 721.960938 533.378906 709.21875 533.707031 696.480469 533.871094 C 671 533.871094 645.515625 532.5625 620.199219 530.601562 C 594.882812 528.644531 569.5625 525.703125 544.410156 522.4375 C 493.9375 515.738281 443.957031 506.917969 394.136719 496.300781 C 344.484375 485.683594 294.992188 473.597656 246.152344 459.222656 C 221.652344 452.035156 197.476562 444.359375 173.304688 436.03125 C 149.128906 427.535156 125.28125 418.550781 101.761719 408.097656 C 90 402.871094 78.238281 397.480469 66.804688 391.4375 C 55.371094 385.394531 43.9375 378.859375 32.996094 371.019531 C 27.441406 367.101562 22.050781 362.855469 16.988281 357.789062 C 14.046875 355.011719 11.597656 352.398438 9.148438 349.132812 C 6.859375 346.03125 4.574219 342.4375 2.777344 338.027344 C 1.144531 333.617188 0 328.0625 1.144531 322.507812 L 1.46875 321.367188 L 1.796875 320.222656 L 1.796875 319.730469 L 2.125 318.589844 L 2.613281 317.28125 L 3.101562 316.300781 C 3.429688 315.648438 3.59375 314.996094 3.921875 314.34375 C 5.226562 311.890625 6.695312 309.769531 8.332031 307.972656 C 11.597656 304.378906 15.191406 301.765625 18.621094 299.804688 C 22.050781 297.679688 25.644531 296.210938 28.910156 294.90625 C 35.769531 292.292969 42.46875 290.496094 49.164062 289.1875 C 55.863281 287.71875 62.394531 286.738281 68.929688 285.921875 C 81.996094 284.289062 95.0625 283.632812 107.96875 283.308594 C 133.9375 282.652344 159.582031 283.632812 185.226562 285.265625 L 183.101562 313.199219 C 158.113281 311.074219 133.285156 309.605469 108.457031 309.605469 C 96.042969 309.605469 83.792969 310.09375 71.707031 311.402344 C 59.78125 312.546875 47.695312 314.503906 37.566406 318.097656 C 32.667969 319.894531 28.09375 322.34375 26.132812 324.46875 C 25.644531 324.960938 25.316406 325.449219 25.152344 325.777344 C 25.152344 325.9375 24.992188 325.9375 24.992188 326.101562 L 24.992188 326.265625 C 24.992188 326.265625 24.992188 326.265625 24.992188 326.101562 C 24.992188 326.101562 24.992188 325.9375 24.992188 326.101562 L 24.828125 326.753906 L 24.828125 327.082031 C 24.664062 327.574219 24.828125 326.753906 24.828125 326.917969 L 24.828125 327.082031 C 24.664062 327.574219 24.664062 328.550781 25.152344 330.1875 C 26.132812 333.289062 29.402344 337.535156 33.15625 341.457031 C 36.914062 345.375 41.488281 349.132812 46.226562 352.5625 C 55.699219 359.585938 66.316406 365.957031 77.097656 372 C 87.875 377.882812 98.984375 383.433594 110.417969 388.824219 C 155.824219 409.730469 203.359375 426.71875 251.378906 442.074219 C 299.402344 457.265625 348.238281 470.332031 397.40625 481.929688 C 446.570312 493.363281 496.0625 503.324219 546.042969 511.003906 C 571.035156 514.921875 596.023438 518.191406 621.179688 520.640625 C 646.332031 523.089844 671.488281 525.050781 696.640625 525.539062 C 709.21875 525.703125 721.796875 525.703125 734.375 524.886719 C 746.949219 524.234375 759.363281 522.925781 771.453125 520.3125 C 777.496094 519.007812 783.375 517.371094 788.929688 514.921875 C 794.320312 512.472656 799.546875 509.207031 801.996094 504.796875 C 804.609375 500.386719 803.628906 494.667969 800.851562 489.605469 C 798.074219 484.542969 793.828125 479.96875 789.253906 475.722656 C 780.109375 467.390625 769.65625 460.367188 758.875 453.832031 C 748.09375 447.300781 736.988281 441.421875 725.554688 435.867188 C 702.847656 424.757812 679.492188 414.960938 655.972656 405.8125 Z M 656.789062 403.035156 " fill-opacity="1" fill-rule="nonzero"/><path fill="#ff73b3" d="M 527.097656 414.796875 C 470.90625 424.105469 463.394531 431.78125 454.410156 489.277344 C 445.261719 431.621094 437.914062 424.105469 381.722656 414.796875 C 437.914062 405.484375 445.425781 397.808594 454.410156 340.3125 C 463.394531 397.972656 470.742188 405.484375 527.097656 414.796875 Z M 622.324219 385.558594 C 617.097656 385.558594 613.011719 389.804688 613.011719 394.867188 C 613.011719 399.933594 617.257812 404.179688 622.324219 404.179688 C 627.386719 404.179688 631.632812 399.933594 631.632812 394.867188 C 631.632812 389.804688 627.550781 385.558594 622.324219 385.558594 Z M 622.324219 385.558594 " fill-opacity="1" fill-rule="nonzero"/><g clip-path="url(#7b5fa1df06)"><path fill="#ffc7d7" d="M 272.941406 382.453125 C 184.246094 299.96875 182.125 300.132812 86.40625 396.992188 C 179.511719 297.679688 179.671875 295.558594 93.757812 210.132812 C 182.449219 292.617188 184.574219 292.453125 280.128906 195.59375 C 187.023438 294.90625 187.023438 297.027344 272.941406 382.453125 Z M 577.40625 377.226562 C 573.320312 377.226562 569.890625 380.496094 569.890625 384.742188 C 569.890625 388.824219 573.15625 392.253906 577.40625 392.253906 C 581.652344 392.253906 584.917969 388.988281 584.917969 384.742188 C 584.917969 380.496094 581.488281 377.226562 577.40625 377.226562 Z M 577.40625 377.226562 " fill-opacity="1" fill-rule="nonzero"/></g><path fill="#ffd550" d="M 679 407.28125 C 679 414.140625 673.449219 419.695312 666.589844 419.695312 C 659.726562 419.695312 654.175781 414.140625 654.175781 407.28125 C 654.175781 400.421875 659.726562 394.867188 666.589844 394.867188 C 673.449219 394.867188 679 400.421875 679 407.28125 Z M 284.539062 529.296875 L 302.179688 500.222656 L 273.101562 517.863281 L 244.027344 500.222656 L 261.667969 529.296875 L 244.027344 558.371094 L 273.101562 540.730469 L 302.179688 558.371094 Z M 284.539062 529.296875 " fill-opacity="1" fill-rule="nonzero"/></svg>