<svg xmlns="http://www.w3.org/2000/svg" xmlns:xlink="http://www.w3.org/1999/xlink" width="1080" zoomAndPan="magnify" viewBox="0 0 810 809.999993" height="1080" preserveAspectRatio="xMidYMid meet" version="1.0"><defs><clipPath id="17b1c0b59b"><path d="M 22 61 L 788 61 L 788 754.761719 L 22 754.761719 Z M 22 61 " clip-rule="nonzero"/></clipPath></defs><g clip-path="url(#17b1c0b59b)"><path fill="#ffc7d7" d="M 441.011719 754.808594 C 433.800781 754.808594 426.617188 754.597656 419.441406 754.1875 C 346.277344 749.984375 279.789062 724.195312 232.21875 681.578125 C 178.015625 633.015625 148.324219 563.484375 146.34375 480.5 C 143.816406 374.230469 171.441406 292.285156 228.464844 236.941406 C 279.191406 187.710938 338.558594 173.78125 369.4375 169.863281 C 438.457031 161.101562 494.761719 165.222656 541.546875 182.460938 C 614.378906 209.300781 660.425781 266.960938 678.40625 353.847656 C 696.109375 439.425781 672.636719 514.015625 612.320312 563.886719 C 547.613281 617.386719 449.519531 632.839844 373.78125 601.476562 C 314.15625 576.785156 277.953125 527.609375 271.839844 463.007812 C 266.363281 405.128906 277.859375 360.09375 306.015625 329.160156 C 332.5 300.066406 371.878906 285.3125 423.066406 285.3125 C 483.972656 285.3125 530.964844 309.132812 555.382812 352.386719 C 578.46875 393.277344 577.613281 447.832031 553.265625 488.148438 C 533.300781 521.203125 500.566406 539.535156 463.59375 538.449219 C 439.613281 537.742188 417.101562 523.964844 404.847656 502.496094 C 393.304688 482.265625 393.117188 459.015625 404.335938 438.707031 C 425.582031 400.234375 467.378906 409.453125 486.519531 419.699219 C 492.230469 422.757812 494.378906 429.871094 491.320312 435.582031 C 488.265625 441.28125 481.183594 443.4375 475.46875 440.402344 C 471.871094 438.511719 439.960938 422.75 424.882812 450.050781 C 415.066406 467.824219 420.890625 483.253906 425.234375 490.867188 C 433.335938 505.0625 448.664062 514.535156 464.289062 514.992188 C 493.011719 515.835938 517.484375 502 533.167969 476.023438 C 553.285156 442.71875 553.996094 397.671875 534.941406 363.921875 C 514.867188 328.359375 475.132812 308.777344 423.066406 308.777344 C 378.765625 308.777344 345.222656 320.949219 323.375 344.957031 C 299.855469 370.792969 290.378906 409.769531 295.207031 460.796875 C 300.464844 516.328125 331.558594 558.59375 382.765625 579.796875 C 450.816406 607.980469 539.0625 594.003906 597.359375 545.804688 C 650.660156 501.742188 671.277344 435.257812 655.417969 358.601562 C 639.191406 280.179688 598.148438 228.324219 533.429688 204.480469 C 490.261719 188.574219 437.585938 184.863281 372.390625 193.140625 C 323.414062 199.359375 164.058594 238.414062 169.808594 479.941406 C 171.628906 556.292969 198.628906 619.972656 247.882812 664.101562 C 291.507812 703.1875 352.914062 726.863281 420.789062 730.761719 C 496.996094 735.136719 576.054688 714.558594 637.664062 674.296875 C 685.113281 643.28125 744.464844 586.355469 757.734375 491.28125 C 770.617188 399 762.570312 321.304688 733.820312 260.363281 C 702.214844 193.382812 644.199219 144.011719 561.382812 113.605469 C 487.398438 86.453125 414.15625 78.863281 343.6875 91.0625 C 278.460938 102.351562 218.132812 130.898438 169.226562 173.605469 C 67.125 262.761719 25.089844 401.722656 56.777344 545.332031 C 77.097656 637.410156 131.457031 706.109375 132.003906 706.796875 C 136.054688 711.855469 135.234375 719.238281 130.171875 723.285156 C 125.109375 727.339844 117.726562 726.515625 113.675781 721.453125 C 111.304688 718.488281 55.339844 647.746094 33.859375 550.382812 C 0.292969 398.277344 45.125 250.820312 153.78125 155.933594 C 205.929688 110.390625 270.214844 79.96875 339.683594 67.941406 C 414.261719 55.03125 491.574219 62.988281 569.472656 91.578125 C 738.480469 153.621094 809.644531 289.191406 780.980469 494.523438 C 769.679688 575.511719 723.34375 646.335938 650.507812 693.9375 C 590.601562 733.089844 515.308594 754.800781 441.011719 754.808594 " fill-opacity="1" fill-rule="nonzero"/></g></svg>